<?xml version="1.0" encoding="iso-8859-1"?>
<!-- Generator: Adobe Illustrator 19.0.0, SVG Export Plug-In . SVG Version: 6.00 Build 0)  -->
<svg version="1.1" id="Layer_1" xmlns="http://www.w3.org/2000/svg" xmlns:xlink="http://www.w3.org/1999/xlink" x="0px" y="0px"
	 viewBox="0 0 512 512" style="enable-background:new 0 0 512 512;" xml:space="preserve">
<path style="fill:#DEDEE0;" d="M488.727,66.493H256H23.273C10.42,66.493,0,76.913,0,89.766v332.468
	c0,12.853,10.42,23.273,23.273,23.273H256h232.727c12.853,0,23.273-10.42,23.273-23.273V89.766
	C512,76.913,501.58,66.493,488.727,66.493z"/>
<g>
	<path style="fill:#3D6DEB;" d="M175.383,255.826c0.042,23.957,14.966,44.378,36.094,52.494V203.289
		C190.349,211.458,175.425,231.879,175.383,255.826z"/>
	<path style="fill:#3D6DEB;" d="M351.794,181.684c-19.914-18.334-47.138-28.85-74.78-28.85H256h-24.675
		c-59.238,0-103.908,44.708-103.908,103.995c0,56.429,46.435,102.338,103.511,102.338H256h20.983l0.509,0.002
		c0.002,0,0.003,0,0.005,0c27.012,0,54.165-10.924,74.493-29.969c21.018-19.692,32.594-45.393,32.594-72.369
		C384.583,227.838,372.938,201.151,351.794,181.684z M256,334.698c-7.708,2.389-15.892,3.68-24.374,3.68
		c-45.515,0-82.545-37.032-82.545-82.551s37.03-82.551,82.545-82.551c8.482,0,16.666,1.291,24.374,3.68
		c33.634,10.426,58.135,41.84,58.135,78.871S289.634,324.271,256,334.698z"/>
	<path style="fill:#3D6DEB;" d="M256,205.144c-1.39-0.672-2.804-1.3-4.253-1.857v105.031c1.451-0.557,2.864-1.184,4.253-1.854
		c18.845-9.093,31.836-28.326,31.877-50.638C287.836,233.523,274.845,214.252,256,205.144z"/>
</g>
<path style="fill:#DEDEE0;" d="M256,176.953c-7.708-2.389-15.892-3.68-24.374-3.68c-45.515,0-82.545,37.033-82.545,82.551
	s37.03,82.551,82.545,82.551c8.482,0,16.666-1.291,24.374-3.68c33.634-10.426,58.135-41.838,58.135-78.871
	S289.634,187.38,256,176.953z M211.478,308.319c-21.127-8.114-36.051-28.537-36.094-52.492
	c0.042-23.948,14.967-44.369,36.094-52.539V308.319z M256,306.465c-1.39,0.67-2.804,1.297-4.253,1.854V203.287
	c1.451,0.557,2.864,1.187,4.253,1.857c18.845,9.107,31.836,28.379,31.877,50.682C287.836,278.139,274.845,297.371,256,306.465z"/>
<path style="fill:#C3C3C7;" d="M230.928,359.166c-57.076,0-103.511-45.909-103.511-102.338c0-59.286,44.67-103.995,103.908-103.995
	H256v-86.34H23.273C10.42,66.493,0,76.913,0,89.766v332.468c0,12.853,10.42,23.273,23.273,23.273H256v-86.342L230.928,359.166z"/>
<g>
</g>
<g>
</g>
<g>
</g>
<g>
</g>
<g>
</g>
<g>
</g>
<g>
</g>
<g>
</g>
<g>
</g>
<g>
</g>
<g>
</g>
<g>
</g>
<g>
</g>
<g>
</g>
<g>
</g>
</svg>
