<?xml version="1.0" encoding="iso-8859-1"?>
<!-- Generator: Adobe Illustrator 19.0.0, SVG Export Plug-In . SVG Version: 6.00 Build 0)  -->
<svg version="1.1" id="Capa_1" xmlns="http://www.w3.org/2000/svg" xmlns:xlink="http://www.w3.org/1999/xlink" x="0px" y="0px"
	 viewBox="0 0 512 512" style="enable-background:new 0 0 512 512;" xml:space="preserve">
<path style="fill:#E7E8E3;" d="M512,402.282c0,16.716-13.55,30.267-30.265,30.267H30.265C13.55,432.549,0,418.996,0,402.282V109.717
	c0-16.716,13.55-30.266,30.265-30.266h451.469c16.716,0,30.265,13.551,30.265,30.266L512,402.282L512,402.282z"/>
<polygon style="fill:#4A9E19;" points="438.217,214.704 413.555,263.548 403.118,283.524 390.713,259.645 368.02,214.704 
	343.935,214.704 391.237,303.831 372.837,338.583 396.239,338.583 460.239,214.704 "/>
<path style="opacity:0.15;fill:#202121;enable-background:new    ;" d="M21.517,402.282V109.717
	c0-16.716,13.552-30.266,30.267-30.266h-21.52C13.55,79.451,0,93.003,0,109.717v292.565c0,16.716,13.55,30.267,30.265,30.267h21.52
	C35.07,432.549,21.517,418.996,21.517,402.282z"/>
<path style="fill:#C60C1E;" d="M151.926,262.88c0.689,0,6.885-53.677-50.237-53.677c-0.126,0-0.248,0.004-0.374,0.004
	c-0.107,0-0.209-0.004-0.315-0.004l-0.009,0.009c-36.621,0.265-47.97,21.16-51.2,36.704c-0.011,0.014-0.024,0.027-0.037,0.041
	c-1.642,7.653-4.742,29.708,9.347,45.82c0.004,0.003,0.007,0.007,0.009,0.01c7.447,8.379,19.854,15.14,40.515,15.14
	c0.105,0,0.203-0.006,0.306-0.006c0.126,0.001,0.25,0.006,0.378,0.006c46.802,0,48.865-29.591,48.865-29.591h-0.689H127.84h-0.689
	c0,0-3.863,14.791-25.265,15.151c-0.518,0.001-1.037,0.003-1.576-0.013c-28.665,0-30.852-27.772-30.96-29.508
	c-0.002-0.056-0.004-0.085-0.004-0.085h76.389h6.191V262.88z M70.03,249.115c0,0,0.713-13.424,11.997-21.034
	c0.565-0.342,1.148-0.673,1.768-0.983c-0.091,0.014-0.178,0.032-0.269,0.047c4.311-2.502,9.987-4.179,17.474-4.179
	c29.594,0,29.594,26.15,29.594,26.15L70.03,249.115L70.03,249.115z"/>
<path style="fill:#064C91;" d="M214.178,209.944c-0.791-0.035-1.585-0.052-2.381-0.052c-25.646,0-35.403,14.555-35.765,15.112
	v-51.588h-0.018h-23.4h-0.163v77.758v54.373h18.746h3.537l1.298-7.905c5.124,4.464,15.402,10.659,33.015,10.659
	c9.087-0.607,17.639-2.682,25.016-6.282c15.535-7.15,26.124-21.947,26.6-43.271C260.663,228.749,238.704,211.023,214.178,209.944z
	 M233.83,276.192c-4.067,8.294-12.148,16.627-28.223,16.968c-32.346,0.69-32.346-34.41-32.346-34.41s-0.536-13.37,7.481-23.444
	c1.976-2.307,4.432-4.398,7.481-6.049c1.542-0.78,29.237-14.304,45.094,11.601c4.513,9.084,3.95,19.27,3.95,19.27
	S237.415,268.036,233.83,276.192z"/>
<path style="fill:#F48D1C;" d="M355.633,304.174c0-0.677-0.666-7.372-0.687-21.353c0.016-9.738,0.328-18.523,0.302-25.922
	c0.007-3.887-0.066-7.423-0.304-10.535c-0.689-10.323,0.689-36.471-44.045-38.538c0,0-42.667-0.69-47.485,26.84h3.282h19.693
	c0.445-1.077,1.491-3.265,3.268-5.442c1.697-1.948,7.167-6.903,18.824-6.959c0.348,0.003,0.687,0.001,1.045,0.012
	c8.934,0.287,14.716,2.273,18.433,5.437c0.035,0.028,0.068,0.048,0.105,0.078c0.02,0.018,0.037,0.038,0.059,0.057
	c0.526,0.461,1.002,0.952,1.448,1.46l0.009-0.009c0,0,0.709,0.703,1.508,2.054c0.076,0.12,0.159,0.238,0.23,0.361
	c-0.013-0.006-0.026-0.011-0.039-0.017c0.687,1.229,1.407,2.902,1.791,5.061c0,0.002,0,0.003,0,0.006
	c0.604,2.704,0.539,4.778,0.539,4.778v4.157c-3.326,0.125-17.924,0.663-23.396,0.663c-8.742,0-34.383,0.882-46.308,12.945
	c-3.469,3.245-5.921,7.341-6.683,12.518c-4.128,27.528,19.957,35.787,39.226,35.787c0.1,0,0.194-0.006,0.294-0.006
	c0.132,0.001,0.265,0.006,0.397,0.006c18.771,0,29.703-5.241,37.889-15.061l0.648,12.305h0.689h18.578h0.689
	c0,0-0.022-0.232-0.059-0.683L355.633,304.174L355.633,304.174L355.633,304.174z M300.578,293.85c0,0-20.646,0-22.022-16.516
	c-1.378-17.893,31.656-16.518,31.656-16.518h23.397C334.3,260.816,338.429,294.539,300.578,293.85z"/>
<g>
</g>
<g>
</g>
<g>
</g>
<g>
</g>
<g>
</g>
<g>
</g>
<g>
</g>
<g>
</g>
<g>
</g>
<g>
</g>
<g>
</g>
<g>
</g>
<g>
</g>
<g>
</g>
<g>
</g>
</svg>
