<?xml version="1.0" encoding="UTF-8"?>
<svg xmlns="http://www.w3.org/2000/svg" xmlns:xlink="http://www.w3.org/1999/xlink" width="481.63pt" height="129.74pt" viewBox="0 0 481.63 129.74" version="1.1">
<defs>
<clipPath id="clip1">
  <path d="M 313 34 L 403 34 L 403 129.738281 L 313 129.738281 Z M 313 34 "/>
</clipPath>
<clipPath id="clip2">
  <path d="M 459 0 L 481.628906 0 L 481.628906 23 L 459 23 Z M 459 0 "/>
</clipPath>
</defs>
<g id="surface1">
<path style=" stroke:none;fill-rule:nonzero;fill:rgb(18.399048%,18.798828%,52.49939%);fill-opacity:1;" d="M 231.457031 43.222656 C 227.910156 53.125 218.128906 51.957031 218.128906 51.957031 L 204.777344 51.964844 L 210.050781 32.347656 C 210.050781 32.347656 218.5 32.390625 224.082031 32.390625 C 230.914063 32.390625 233.394531 37.816406 231.457031 43.222656 Z M 259.5 34.058594 C 261.667969 16.890625 248.585938 9.722656 232.25 9.722656 C 224.582031 9.722656 189.332031 9.722656 189.332031 9.722656 L 164 102.058594 L 191.269531 102.058594 L 198.9375 73.589844 L 220.667969 73.722656 C 220.667969 73.722656 254.316406 75.148438 259.5 34.058594 "/>
<path style=" stroke:none;fill-rule:nonzero;fill:rgb(18.399048%,18.798828%,52.49939%);fill-opacity:1;" d="M 103.707031 34.972656 L 128.582031 34.972656 L 118.339844 74.386719 C 118.339844 74.386719 115.785156 83.175781 124.007813 83.855469 C 130.5 84.390625 135.332031 76.640625 136.917969 71.390625 C 138.996094 64.496094 147.082031 34.972656 147.082031 34.972656 L 172.707031 34.972656 L 153.207031 102.058594 L 130.832031 102.058594 L 133.582031 92.472656 C 133.582031 92.472656 122.167969 106.390625 105.207031 104.722656 C 90.132813 103.242188 88.832031 92.308594 91.445313 78.667969 C 92.726563 71.96875 103.707031 34.972656 103.707031 34.972656 "/>
<path style=" stroke:none;fill-rule:nonzero;fill:rgb(18.399048%,18.798828%,52.49939%);fill-opacity:1;" d="M 282.429688 88.390625 C 278.167969 89.472656 273 90.058594 271.976563 86.1875 C 269.160156 75.578125 294 72.472656 294 72.472656 C 294.167969 82.140625 285.699219 87.558594 282.429688 88.390625 Z M 320 68.972656 C 323.277344 57.816406 327.421875 47.246094 324.085938 41.390625 C 318.980469 32.425781 309.75 31.640625 296.25 31.640625 C 281.335938 31.640625 262.917969 34.472656 256.917969 54.308594 C 266.25 54.308594 281.75 54.308594 281.75 54.308594 C 281.75 54.308594 284.011719 46.835938 293.335938 47.308594 C 301.585938 47.722656 301.132813 53.402344 298.09375 56.539063 C 292.761719 62.039063 278.035156 58.988281 261.726563 64.648438 C 247.476563 69.589844 242.488281 88.328125 245.585938 95.808594 C 248.585938 103.058594 254.171875 103.980469 261.710938 104.722656 C 273.816406 105.910156 283.097656 99.164063 287.417969 95.203125 C 287.417969 99.601563 287.53125 102.058594 287.53125 102.058594 L 313.664063 102.058594 L 313.601563 99.597656 C 313.601563 99.597656 311.273438 98.980469 311.53125 95.710938 C 311.722656 93.3125 316.234375 81.789063 320 68.972656 "/>
<path style=" stroke:none;fill-rule:nonzero;fill:rgb(18.399048%,18.798828%,52.49939%);fill-opacity:1;" d="M 68.589844 43.011719 C 65.0625 51.183594 54.128906 50.253906 54.128906 50.253906 L 41.402344 50.195313 L 46.050781 32.894531 C 46.050781 32.894531 57.4375 32.9375 63.019531 32.9375 C 69 32.9375 70.867188 37.738281 68.589844 43.011719 Z M 97.519531 31.222656 C 99.6875 14.058594 84.582031 9.722656 68.25 9.722656 C 60.582031 9.722656 25.332031 9.722656 25.332031 9.722656 L 0 102.058594 L 27.269531 102.058594 L 35.785156 70.707031 L 51.082031 70.832031 C 51.082031 70.832031 57.394531 70.464844 57.519531 76.394531 C 57.65625 82.71875 52.832031 94.332031 53.144531 102.058594 C 56.769531 102.058594 81.160156 102.058594 81.160156 102.058594 L 81.097656 99.597656 C 81.097656 99.597656 78.769531 98.980469 79.03125 95.710938 C 79.140625 94.347656 80.640625 90.042969 82.609375 84.234375 C 83.792969 81.671875 85.582031 75.597656 85.417969 70.652344 C 85.210938 64.476563 81.335938 61.609375 75.75 59.605469 C 93.167969 55.519531 97.519531 31.222656 97.519531 31.222656 "/>
<g clip-path="url(#clip1)" clip-rule="nonzero">
<path style=" stroke:none;fill-rule:nonzero;fill:rgb(18.399048%,18.798828%,52.49939%);fill-opacity:1;" d="M 331.835938 34.972656 L 357.167969 34.972656 L 357.167969 75.222656 L 379.085938 34.972656 L 402.335938 34.972656 L 355.460938 116.347656 C 355.460938 116.347656 351.109375 123.175781 345.710938 126.785156 C 341.273438 129.753906 335.824219 129.621094 334.15625 129.738281 C 324.898438 129.660156 313.730469 129.636719 313.730469 129.636719 L 319.117188 110.238281 L 327.835938 110.222656 C 327.835938 110.222656 331.824219 109.816406 333.367188 107.847656 C 334.835938 105.972656 335.585938 104.097656 335.585938 101.347656 C 335.585938 97.226563 331.835938 34.972656 331.835938 34.972656 "/>
</g>
<path style=" stroke:none;fill-rule:nonzero;fill:rgb(6.298828%,50.59967%,27.799988%);fill-opacity:1;" d="M 434.835938 19.472656 L 405.585938 121.222656 L 460.335938 70.347656 Z M 434.835938 19.472656 "/>
<path style=" stroke:none;fill-rule:nonzero;fill:rgb(94.099426%,45.098877%,13.299561%);fill-opacity:1;" d="M 416.085938 19.472656 L 386.835938 121.222656 L 441.585938 70.347656 Z M 416.085938 19.472656 "/>
<g clip-path="url(#clip2)" clip-rule="nonzero">
<path style=" stroke:none;fill-rule:nonzero;fill:rgb(0.799561%,0.799561%,0.799561%);fill-opacity:1;" d="M 470.542969 1.003906 C 464.984375 1.003906 460.460938 5.527344 460.460938 11.085938 C 460.460938 16.644531 464.984375 21.167969 470.542969 21.167969 C 476.101563 21.167969 480.625 16.644531 480.625 11.085938 C 480.625 5.527344 476.101563 1.003906 470.542969 1.003906 Z M 470.542969 22.167969 C 464.429688 22.167969 459.460938 17.195313 459.460938 11.085938 C 459.460938 4.976563 464.429688 0.00390625 470.542969 0.00390625 C 476.652344 0.00390625 481.625 4.976563 481.625 11.085938 C 481.625 17.195313 476.652344 22.167969 470.542969 22.167969 "/>
</g>
<path style=" stroke:none;fill-rule:nonzero;fill:rgb(0.799561%,0.799561%,0.799561%);fill-opacity:1;" d="M 465.164063 15.222656 L 465.164063 8.292969 L 462.578125 8.292969 L 462.578125 7.363281 L 468.804688 7.363281 L 468.804688 8.292969 L 466.207031 8.292969 L 466.207031 15.222656 L 465.164063 15.222656 "/>
<path style=" stroke:none;fill-rule:nonzero;fill:rgb(0.799561%,0.799561%,0.799561%);fill-opacity:1;" d="M 470.386719 15.222656 L 470.386719 7.363281 L 471.953125 7.363281 L 473.8125 12.929688 C 473.984375 13.445313 474.109375 13.835938 474.191406 14.09375 C 474.277344 13.804688 474.417969 13.386719 474.609375 12.832031 L 476.488281 7.363281 L 477.886719 7.363281 L 477.886719 15.222656 L 476.886719 15.222656 L 476.886719 8.644531 L 474.601563 15.222656 L 473.664063 15.222656 L 471.390625 8.53125 L 471.390625 15.222656 L 470.386719 15.222656 "/>
</g>
</svg>
