<svg width="16" height="19" version="1.1" xmlns="http://www.w3.org/2000/svg" viewBox="0 0 18 18">
	<g fill='none'>
		<polygon id="Shape" points="0 0 20 0 20 20 0 20" />
		<path d="M15.8333333,1.66666667 L4.16666667,1.66666667 C3.24166667,1.66666667 2.5,2.41666667 2.5,3.33333333 L2.5,15 C2.5,15.9166667 3.24166667,16.6666667 4.16666667,16.6666667 L7.5,16.6666667 L10,19.1666667 L12.5,16.6666667 L15.8333333,16.6666667 C16.75,16.6666667 17.5,15.9166667 17.5,15 L17.5,3.33333333 C17.5,2.41666667 16.75,1.66666667 15.8333333,1.66666667 Z M10.8333333,15 L9.16666667,15 L9.16666667,13.3333333 L10.8333333,13.3333333 L10.8333333,15 Z M12.5583333,8.54166667 L11.8083333,9.30833333 C11.2083333,9.91666667 10.8333333,10.4166667 10.8333333,11.6666667 L9.16666667,11.6666667 L9.16666667,11.25 C9.16666667,10.3333333 9.54166667,9.5 10.1416667,8.89166667 L11.175,7.84166667 C11.4833333,7.54166667 11.6666667,7.125 11.6666667,6.66666667 C11.6666667,5.75 10.9166667,5 10,5 C9.08333333,5 8.33333333,5.75 8.33333333,6.66666667 L6.66666667,6.66666667 C6.66666667,4.825 8.15833333,3.33333333 10,3.33333333 C11.8416667,3.33333333 13.3333333,4.825 13.3333333,6.66666667 C13.3333333,7.4 13.0333333,8.06666667 12.5583333,8.54166667 Z" id="Shape" fill="#2874F1" />
	</g>
</svg>