<svg xmlns="http://www.w3.org/2000/svg" width="26" height="28"><g fill="none" fill-rule="evenodd"><path d="M-7-6h40v40H-7z"/><path fill="#F99D27" d="M7.5 6c6.3-6.2 14-8 17-3.6 3 4.3.4 13-6 19.2-6.2 6.3-14 8-17 3.6-3-4.3-.3-13 6-19.2"/><path fill="#B02A30" d="M11.7 2.7c-.7.5-1.4 1-2 1.8-5.6 5.5-8 13-5.2 16.7 2.8 3.8 9.6 2.4 15.3-3 3-3 5-6.5 6-9.7 0-2.4-.2-4.5-1.3-6C22-1 17-.5 11.7 2.5"/><path fill="#FFF" d="M19.3 2.5c.7.7.3 2.4-1 3.6-1.3 1.7-3 2-3.6 1-.8-.3-.3-2 1-3.2 1.2-1.3 3-1.7 3.6-1zm-4.5 22.2c-3 2.2-6 3.3-9 3 1.3 0 2.3-1.4 3-3.3 1-2 1.5-3.7 2-5.4.5-2.6.5-4.5.2-5-.5-.6-1.7-.4-3 .4-.6.3-1.4 0-.4-1 1-1.3 5-4.2 6.3-4.6 1.2-.5 3 0 2.3 1.8-.4 1.3-5.8 15.6-1.8 14z"/></g></svg>