<svg xmlns="http://www.w3.org/2000/svg" width="28" height="24" xmlns:xlink="http://www.w3.org/1999/xlink"><defs><path id="a" d="M28 0H0v23.8h28V0z"/></defs><g fill="none" fill-rule="evenodd"><path d="M-6-8h40v40H-6z"/><mask id="b" fill="#fff"><use xlink:href="#a"/></mask><path fill="#003874" d="M0 12C0 5.2 6.3 0 14 0s14 5.3 14 12c0 6.5-6.3 11.8-14 11.8s-14-5.3-14-12" mask="url(#b)"/><path fill="#ED1C24" d="M12.3 3.8l3.2-1V20l-3.2 1.2" mask="url(#b)"/><path fill="#FFF" d="M14.2 14.7C12.8 16.3 11.4 18 9 18c-3.7 0-5.4-3.4-5.4-6.3 0-2.8 1.3-6 4.8-6 1.5 0 3 1 4 2V10c-1-.7-2.5-1-3.6-1-2.2 0-4.2.7-4 3 0 1.4 1.4 2.4 3 2.4 2.2 0 3.6-2 4.7-3.6L14 9c1-1.6 2.6-3.2 5-3.2 3 0 4.7 2.4 5.2 5H23c-.5-1-1.5-1.4-2.6-1.4-2.3 0-3.8 2-5 3.7l-1.2 2zM24.5 13c-.3 2.6-1.7 5-4.8 5-1.8 0-3.2-1-4.2-2.6v-1.7c1.3.6 2.4 1.2 3.8 1.2 1.7 0 3.2-1 3.8-2h2z" mask="url(#b)"/></g></svg>