<?xml version="1.0" encoding="UTF-8"?>
<!-- Generator: Adobe Illustrator 23.0.3, SVG Export Plug-In . SVG Version: 6.00 Build 0)  -->
<svg xmlns="http://www.w3.org/2000/svg" xmlns:xlink="http://www.w3.org/1999/xlink" id="Layer_1" x="0px" y="0px" viewBox="0 0 879 879" style="enable-background:new 0 0 879 879;" xml:space="preserve">
<style type="text/css">
	.st0{fill:#FFC30D;}
	.st1{fill:#FFDD00;}
	.st2{fill:#FFFFFF;}
	.st3{fill:#F0A700;}
	.st4{fill:#FFC000;}
	.st5{opacity:0.72;fill:#D89309;enable-background:new    ;}
	.st6{display:none;opacity:0.43;}
	.st7{display:inline;fill:#EA9E06;}
	.st8{display:inline;}
	.st9{opacity:0.9;}
	.st10{fill:#0C0802;}
	.st11{clip-path:url(#SVGID_2_);}
	.st12{fill:#FFD60D;}
	.st13{opacity:0.91;fill:#F9B110;enable-background:new    ;}
</style>
<title>Asset 1@s</title>
<g>
	<g>
		<g id="Layer_1-2">
			<path class="st0" d="M753.3,500.1c0,177.7-144,313-321.7,313S110,677.8,110,500.1s144-321.7,321.6-321.7S753.3,322.5,753.3,500.1     z"></path>
			<path class="st1" d="M431.6,859.3C191.5,859.3,3.4,675.7,3.4,441.4c0-236.1,192.1-428.2,428.2-428.2s428.2,192.1,428.2,428.2     C859.8,675.7,671.7,859.3,431.6,859.3z"></path>
			<path class="st2" d="M431.6,97.4c-198.4,0-359.8,161.4-359.8,359.8c0,195.7,158.1,349,359.8,349s359.8-153.2,359.8-349     C791.4,258.8,630,97.4,431.6,97.4z"></path>
			<path class="st3" d="M434.5,78C236.1,78,74.7,239.4,74.7,437.8c0,195.7,158.1,349,359.8,349s359.8-153.3,359.8-349     C794.4,239.4,633,78,434.5,78z"></path>
			<path class="st4" d="M431.6,90.8c-198.4,0-359.8,161.4-359.8,359.8c0,195.7,158.1,349,359.8,349s359.8-153.3,359.8-349     C791.4,252.2,630,90.8,431.6,90.8z"></path>
			<path class="st5" d="M434.1,803.8c-198.2-1-358-162.5-357-360.7s162.5-358,360.7-357c143.3,0.7,272.4,86.7,328.4,218.6     c77,183.1-9,393.9-192.1,470.9C529.9,794.3,482.2,803.9,434.1,803.8z M434.1,93.3c-94.1,0-182.7,36.5-249.2,102.9     S81.7,350.7,81.7,444.5s36.7,182,103.2,248.4S340,795.8,434.1,795.8s182.7-36.5,249.2-102.9s103.2-154.5,103.2-248.4     s-36.6-182-103.2-248.4S528.3,93.3,434.1,93.3z"></path>
			<g class="st6">
				<path class="st7" d="M373.6,777.6l66.8-245.1c2.1-7.4-2.3-15.2-9.7-17.2c-1.2-0.3-2.4-0.5-3.7-0.5l-164-1.5      c-24.5,0.6-44.6-10.8-53.6-30.4c-9.7-21.2-4.4-46.6,13.7-66.5L507.5,105l0,0l0,0l1.5,1.4l0.1-0.1c-2,3.2-28.5,94.7-71,244.6      c-1.2,4.3-0.3,8.9,2.4,12.4c2.7,3.5,6.9,5.6,11.4,5.5l161.8-3c33.7,0.1,60.9,27.4,60.9,61.1c0,15.3-5.8,29.9-16.1,41.2      L373.6,777.6z M263.1,511.3l164,1.5c8.8,0.1,15.9,7.3,15.9,16.1c0,1.4-0.2,2.8-0.6,4.1l-64.7,237.2l279.2-303.4      c22-24,20.5-61.3-3.5-83.4c-10.8-10-25-15.5-39.7-15.6l-161.8,3c-8.8,0.2-16.1-6.8-16.3-15.7c0-1.6,0.2-3.2,0.6-4.7      c28-98.9,61.2-215,69.5-240.4l-281,307.7C207.1,437,202,461.6,211.3,482C220,500.9,239.3,511.9,263.1,511.3z"></path>
				<g class="st8">
					<g class="st9">
						<path class="st10" d="M373.6,777.6l66.8-245.1c2.1-7.4-2.3-15.2-9.7-17.2c-1.2-0.3-2.4-0.5-3.7-0.5l-164-1.5        c-24.5,0.6-44.6-10.8-53.6-30.4c-9.7-21.2-4.4-46.6,13.7-66.5L507.5,105l0,0l0,0l1.5,1.4l0.1-0.1c-2,3.2-28.5,94.7-71,244.6        c-1.2,4.3-0.3,8.9,2.4,12.4c2.7,3.5,6.9,5.6,11.4,5.5l161.8-3c33.7,0.1,60.9,27.4,60.9,61.1c0,15.3-5.8,29.9-16.1,41.2        L373.6,777.6z M263.1,511.3l164,1.5c8.8,0.1,15.9,7.3,15.9,16.1c0,1.4-0.2,2.8-0.6,4.1l-64.7,237.2l279.2-303.4        c22-24,20.5-61.3-3.5-83.4c-10.8-10-25-15.5-39.7-15.6l-161.8,3c-8.8,0.2-16.1-6.8-16.3-15.7c0-1.6,0.2-3.2,0.6-4.7        c28-98.9,61.2-215,69.5-240.4l-281,307.7C207.1,437,202,461.6,211.3,482C220,500.9,239.3,511.9,263.1,511.3z"></path>
					</g>
				</g>
			</g>
			<g>
				<defs>
					<ellipse id="SVGID_1_" cx="439" cy="441.1" rx="355.7" ry="354.2"></ellipse>
				</defs>
				<clipPath id="SVGID_2_">
					<use xlink:href="#SVGID_1_" style="overflow:visible;"></use>
				</clipPath>
				<g class="st11">
					<path class="st12" d="M829.3,319.1L560.2,49.9c-66.6-66.6-174.5-66.6-241.1,0L49.9,319.1c-66.5,66.6-66.5,174.4,0,241       l269.2,269.2c66.5,66.6,174.5,66.6,241,0c0,0,0,0,0,0l269.2-269.2C895.9,493.6,895.9,385.7,829.3,319.1       C829.3,319.1,829.3,319.1,829.3,319.1z M660.4,458.5c0,0-147.5,162.9-285.1,315.1c24.7-90.5,59.1-215.5,68.2-246.6       c-1.3-7.7-8.6-13.9-18-13.9h-159c-49.4,0-77.6-49.1-51-84.5c7.1-7.8,14.7-16.2,22.7-25c34.6-38.1,185.7-204.2,270.7-297.8       c-23.6,81.5-63,215.3-73.2,250.3c1.3,7.7,8.6,13.9,18,13.9h159C664.1,369.9,692.6,422.9,660.4,458.5z"></path>
					<path class="st13" d="M266.5,513c-49.4,0-77.6-49.1-51-84.5c7.1-7.8,14.7-16.2,22.7-25c34.6-38.1,185.7-204.2,270.7-297.8       C485.3,187.2,445.9,321,435.7,356c1.3,7.7,8.6,13.9,18,13.9h159c181.9,0,209.3,165.1,91.5,315.3l125-125       c66.5-66.6,66.5-174.4,0-241L560.2,49.9c-66.6-66.6-174.5-66.6-241.1,0L189.8,179.2C48.5,320.5,81.5,513,266.5,513z"></path>
				</g>
			</g>
		</g>
	</g>
</g>
<path class="st2" d="M508.9,105.7L224,417c-36.7,40.1-15.1,96.7,39.2,95.3l164.4,1.5c8.3,0,15,6.8,14.9,15.1c0,1.3-0.2,2.6-0.5,3.9  L376,773.9l282.6-306.4c35.4-38.4,8.2-100.6-44.1-100.6l-162.2,3c-8.3,0.2-15.1-6.4-15.3-14.7c0-1.5,0.2-3,0.6-4.5  C454.9,289.9,506.7,107.9,508.9,105.7z"></path>
</svg>
