<svg id="Capa_1" enable-background="new 0 0 512 512" height="512" viewBox="0 0 512 512" width="512" xmlns="http://www.w3.org/2000/svg"><g><g><path d="m480 412.511-120-79.995v-203.027h-240v-120h392v330h-32z" fill="#ffdf40"/></g><path d="m315 129.489h45v203.027l120 79.995v-73.022h32v-330h-197z" fill="#ffbe40"/><g><path d="m30 502.511v-73.022h-30v-330h390v330h-250.459z" fill="#ff7f40"/></g><path d="m195 99.489h195v330h-195z" fill="#f25a3c"/><g id="Question_1_"><g><g><path d="m180 309.489h30v30h-30z" fill="#f3f5f9"/></g><g><path d="m240 219.489c0 21.299-11.1 32.399-19.501 40.499-7.2 7.5-10.499 11.1-10.499 19.501h-30c0-17.701 7.5-28.2 15-36l4.501-4.501c7.2-7.5 10.499-11.1 10.499-19.499 0-8.401-6.599-15-15-15s-15 6.599-15 15h-30c0-24.901 20.099-45 45-45s45 20.099 45 45z" fill="#f3f5f9"/></g></g></g><g fill="#e1e6f0"><path d="m195 309.489h15v30h-15z"/><path d="m240 219.489c0 21.299-11.1 32.399-19.501 40.499-7.2 7.5-10.499 11.1-10.499 19.501h-15v-36l4.501-4.501c7.2-7.5 10.499-11.1 10.499-19.499 0-8.401-6.599-15-15-15v-30c24.901 0 45 20.099 45 45z"/></g></g></svg>