<svg width="778" height="526" viewBox="0 0 778 526" fill="none" xmlns="http://www.w3.org/2000/svg">
<g clip-path="url(#clip0)">
<path fill-rule="evenodd" clip-rule="evenodd" d="M640.46 474.395C833.425 321.271 608.061 154.882 512.815 256.938C608.833 -72.1138 10.145 -97.2408 145.853 252.109C145.853 252.109 -83.9093 259.838 56.498 462.796L640.46 474.395ZM661.195 467.034C661.195 467.034 732.459 427.762 726.62 338.368C726.62 338.368 726.411 336.072 727.982 335.967C729.539 335.862 754.346 408.028 701.827 461.497L661.195 467.034Z" fill="#F0EEF6"/>
<path fill-rule="evenodd" clip-rule="evenodd" d="M15.696 462.6H755.393C760.237 462.6 764.215 466.558 764.215 471.408C764.215 476.258 760.25 480.217 755.393 480.217H725.633C722.942 480.217 720.737 482.419 720.737 485.106C720.737 487.793 722.942 489.995 725.633 489.995H736.529C739.903 489.995 742.66 492.748 742.66 496.116C742.66 499.485 739.903 502.238 736.529 502.238H35.5445C32.1708 502.238 29.4141 499.485 29.4141 496.116C29.4141 492.748 32.1708 489.995 35.5445 489.995H44.1166C46.8077 489.995 49.0131 487.793 49.0131 485.106C49.0131 482.419 46.8077 480.217 44.1166 480.217H15.696C10.8389 480.217 6.87448 476.245 6.87448 471.408C6.87448 466.571 10.8521 462.6 15.696 462.6ZM20.2906 502.251C23.5199 502.251 26.1716 499.603 26.1716 496.378V495.893C26.1716 492.669 23.5199 490.021 20.2906 490.021C17.0613 490.021 14.4096 492.669 14.4096 495.893V496.378C14.4096 499.603 17.0613 502.251 20.2906 502.251Z" fill="#01051A"/>
<path fill-rule="evenodd" clip-rule="evenodd" d="M246.244 86.9143C246.244 86.3763 246.676 85.9302 247.226 85.9302C247.763 85.9302 248.208 86.3632 248.208 86.9143V91.323C248.208 91.8609 247.776 92.307 247.226 92.307C246.689 92.307 246.244 91.874 246.244 91.323V86.9143ZM239.594 90.4963C239.215 90.1158 239.215 89.4991 239.594 89.1055C239.974 88.725 240.589 88.725 240.969 89.1055L244.071 92.2152C244.451 92.5957 244.451 93.2124 244.071 93.606C243.692 93.9865 243.076 93.9865 242.697 93.606L239.594 90.4963ZM237.408 97.7392C236.871 97.7392 236.426 97.3062 236.426 96.7551C236.426 96.2171 236.858 95.771 237.408 95.771H241.807C242.343 95.771 242.788 96.204 242.788 96.7551C242.788 97.2931 242.356 97.7392 241.807 97.7392H237.408ZM240.969 104.405C240.589 104.785 239.974 104.785 239.594 104.405C239.215 104.024 239.215 103.407 239.594 103.014L242.697 99.9042C243.076 99.5237 243.692 99.5237 244.071 99.9042C244.451 100.285 244.451 100.901 244.071 101.295L240.969 104.405ZM248.195 106.596C248.195 107.134 247.763 107.58 247.213 107.58C246.676 107.58 246.231 107.147 246.231 106.596V102.2C246.231 101.662 246.663 101.216 247.213 101.216C247.75 101.216 248.195 101.649 248.195 102.2V106.596ZM254.858 103.027C255.237 103.408 255.237 104.024 254.858 104.418C254.478 104.798 253.863 104.798 253.483 104.418L250.381 101.308C250.001 100.928 250.001 100.311 250.381 99.9173C250.76 99.5368 251.376 99.5368 251.768 99.9173L254.858 103.027ZM257.044 95.7841C257.58 95.7841 258.026 96.2171 258.026 96.7682C258.026 97.3062 257.594 97.7523 257.044 97.7523H252.645C252.109 97.7523 251.664 97.3193 251.664 96.7682C251.664 96.2302 252.096 95.7841 252.645 95.7841H257.044ZM253.47 89.1055C253.85 88.725 254.465 88.725 254.845 89.1055C255.224 89.486 255.224 90.1027 254.845 90.4963L251.742 93.606C251.362 93.9865 250.747 93.9865 250.355 93.606C249.975 93.2255 249.975 92.6088 250.355 92.2152L253.47 89.1055Z" fill="white"/>
<path fill-rule="evenodd" clip-rule="evenodd" d="M721.633 119.691C721.633 119.153 722.065 118.707 722.615 118.707C723.151 118.707 723.597 119.14 723.597 119.691V124.1C723.597 124.638 723.165 125.084 722.615 125.084C722.078 125.084 721.633 124.651 721.633 124.1V119.691ZM714.97 123.26C714.59 122.879 714.59 122.263 714.97 121.882C715.35 121.502 715.965 121.502 716.344 121.882L719.447 124.992C719.826 125.372 719.826 125.989 719.447 126.383C719.067 126.763 718.452 126.763 718.072 126.383L714.97 123.26ZM712.784 130.516C712.247 130.516 711.802 130.083 711.802 129.532C711.802 128.994 712.234 128.548 712.784 128.548H717.182C717.719 128.548 718.164 128.981 718.164 129.532C718.164 130.07 717.732 130.516 717.182 130.516H712.784ZM716.358 137.181C715.978 137.562 715.363 137.562 714.983 137.181C714.603 136.801 714.603 136.184 714.983 135.804L718.085 132.694C718.465 132.314 719.08 132.314 719.46 132.694C719.84 133.075 719.84 133.691 719.46 134.085L716.358 137.181ZM723.583 139.373C723.583 139.911 723.151 140.357 722.602 140.357C722.065 140.357 721.62 139.924 721.62 139.373V134.964C721.62 134.426 722.052 133.98 722.602 133.98C723.138 133.98 723.583 134.413 723.583 134.964V139.373ZM730.233 135.804C730.613 136.184 730.613 136.801 730.233 137.181C729.854 137.562 729.238 137.562 728.859 137.181L725.756 134.072C725.377 133.691 725.377 133.075 725.756 132.681C726.136 132.3 726.751 132.3 727.131 132.681L730.233 135.804ZM732.419 128.548C732.956 128.548 733.401 128.981 733.401 129.532C733.401 130.07 732.969 130.516 732.419 130.516H728.034C727.497 130.516 727.052 130.083 727.052 129.532C727.052 128.994 727.484 128.548 728.034 128.548H732.419ZM728.859 121.882C729.238 121.502 729.854 121.502 730.233 121.882C730.613 122.263 730.613 122.879 730.233 123.26L727.131 126.37C726.751 126.75 726.136 126.75 725.756 126.37C725.377 125.989 725.377 125.372 725.756 124.979L728.859 121.882Z" fill="#C8BFDE"/>
<path fill-rule="evenodd" clip-rule="evenodd" d="M50.4765 59.5436C50.4765 59.0056 50.9085 58.5595 51.4582 58.5595C51.995 58.5595 52.44 58.9925 52.44 59.5436V63.9523C52.44 64.4903 52.008 64.9364 51.4582 64.9364C50.9215 64.9364 50.4765 64.5034 50.4765 63.9523V59.5436ZM43.8266 63.1125C43.4469 62.732 43.4469 62.1153 43.8266 61.7348C44.2062 61.3543 44.8214 61.3543 45.201 61.7348L48.3035 64.8445C48.6831 65.225 48.6831 65.8417 48.3035 66.2223C47.9238 66.6028 47.3086 66.6028 46.9159 66.2223L43.8266 63.1125ZM41.6405 70.3554C41.1038 70.3554 40.6587 69.9224 40.6587 69.3713C40.6587 68.8334 41.0907 68.3872 41.6405 68.3872H46.0388C46.5755 68.3872 47.0206 68.8202 47.0206 69.3713C47.0206 69.9093 46.5886 70.3554 46.0388 70.3554H41.6405ZM45.201 77.0209C44.8214 77.4015 44.2062 77.4015 43.8266 77.0209C43.4469 76.6404 43.4469 76.0237 43.8266 75.6432L46.929 72.5335C47.3086 72.153 47.9238 72.153 48.3166 72.5335C48.6962 72.914 48.6962 73.5307 48.3166 73.9112L45.201 77.0209ZM52.44 79.2122C52.44 79.7501 52.008 80.1963 51.4582 80.1963C50.9215 80.1963 50.4765 79.7633 50.4765 79.2122V74.8035C50.4765 74.2655 50.9085 73.8194 51.4582 73.8194C51.995 73.8194 52.44 74.2524 52.44 74.8035V79.2122ZM59.0899 75.6432C59.4696 76.0237 59.4696 76.6404 59.0899 77.0209C58.7103 77.4015 58.0951 77.4015 57.7154 77.0209L54.613 73.9112C54.2334 73.5307 54.2334 72.914 54.613 72.5335C54.9926 72.153 55.6079 72.153 56.0006 72.5335L59.0899 75.6432ZM61.276 68.4004C61.8127 68.4004 62.2578 68.8334 62.2578 69.3844C62.2578 69.9224 61.8258 70.3685 61.276 70.3685H56.8907C56.354 70.3685 55.909 69.9355 55.909 69.3844C55.909 68.8465 56.341 68.4004 56.8907 68.4004H61.276ZM57.7024 61.7217C58.082 61.3412 58.6972 61.3412 59.0768 61.7217C59.4565 62.1022 59.4565 62.7189 59.0768 63.0994L55.9744 66.2091C55.5948 66.5896 54.9796 66.5896 54.5868 66.2091C54.2072 65.8286 54.2072 65.2119 54.5868 64.8314L57.7024 61.7217Z" fill="#C8BFDE"/>
<path fill-rule="evenodd" clip-rule="evenodd" d="M550.306 137.352H555.83C556.838 137.352 557.676 138.179 557.676 139.202V144.739C557.676 145.749 556.851 146.589 555.83 146.589H550.306C549.298 146.589 548.46 145.763 548.46 144.739V139.202C548.46 138.179 549.298 137.352 550.306 137.352Z" fill="#DCD7EB"/>
<path fill-rule="evenodd" clip-rule="evenodd" d="M569.182 137.352H574.707C575.715 137.352 576.552 138.179 576.552 139.202V144.739C576.552 145.749 575.728 146.589 574.707 146.589H569.182C568.174 146.589 567.337 145.763 567.337 144.739V139.202C567.337 138.179 568.161 137.352 569.182 137.352Z" fill="#DCD7EB"/>
<path fill-rule="evenodd" clip-rule="evenodd" d="M588.046 137.352H593.57C594.578 137.352 595.415 138.179 595.415 139.202V144.739C595.415 145.749 594.591 146.589 593.57 146.589H588.046C587.038 146.589 586.2 145.763 586.2 144.739V139.202C586.213 138.179 587.038 137.352 588.046 137.352Z" fill="#DCD7EB"/>
<path fill-rule="evenodd" clip-rule="evenodd" d="M606.922 137.352H612.446C613.454 137.352 614.292 138.179 614.292 139.202V144.739C614.292 145.749 613.467 146.589 612.446 146.589H606.922C605.914 146.589 605.076 145.763 605.076 144.739V139.202C605.089 138.179 605.914 137.352 606.922 137.352Z" fill="#DCD7EB"/>
<path fill-rule="evenodd" clip-rule="evenodd" d="M571.728 67.4558C574.202 67.4558 576.572 67.9019 578.771 68.7154C579.766 67.6263 581.193 66.9309 582.79 66.9309C583.536 66.9309 584.243 67.0753 584.884 67.3508C585.237 62.6797 589.138 58.9926 593.89 58.9926C595.958 58.9926 597.857 59.6881 599.375 60.8558C600.357 59.5175 601.928 58.6384 603.708 58.6384C604.009 58.6384 604.297 58.6646 604.585 58.704C603.983 57.2869 603.643 55.7386 603.643 54.1116C603.643 47.656 608.866 42.4206 615.306 42.4206C616.51 42.4206 617.662 42.6043 618.749 42.9455C619.587 41.1348 621.419 39.8883 623.54 39.8883H623.697C623.671 39.4684 623.658 39.0485 623.658 38.6155C623.658 27.0164 633.044 17.6086 644.615 17.6086C656.187 17.6086 665.573 27.0164 665.573 38.6155C665.573 38.773 665.573 38.9435 665.573 39.101C666.581 38.8386 667.641 38.7074 668.728 38.7074C670.901 38.7074 672.943 39.2453 674.723 40.2032C677.786 36.0307 682.708 33.3146 688.272 33.3146C697.54 33.3146 705.054 40.8461 705.054 50.1359C705.054 51.9597 704.766 53.7179 704.229 55.3712C704.399 55.3581 704.569 55.3581 704.74 55.3581C709.308 55.3581 713 59.0714 713 63.6375C713 64.1755 712.947 64.7003 712.856 65.2121C712.908 65.2121 712.973 65.2121 713.026 65.2121C715.605 65.2121 717.712 67.259 717.791 69.8307C718.511 69.6995 719.244 69.6208 720.003 69.6208C722.988 69.6208 725.776 70.6573 727.779 72.5599C733.146 77.6509 727.281 78.9761 721.639 78.9761H714.269H708.483H589.963H580.708H565.51C559.62 78.9761 551.216 79.9471 557.054 73.767C560.745 69.8832 565.955 67.4558 571.728 67.4558Z" fill="#F0EEF6"/>
<path fill-rule="evenodd" clip-rule="evenodd" d="M192.474 125.017C185.3 125.017 178.415 126.316 172.066 128.678C169.199 125.502 165.049 123.508 160.429 123.508C158.282 123.508 156.227 123.941 154.368 124.728C153.334 111.174 142.037 100.493 128.252 100.493C127.205 100.493 126.171 100.559 125.15 100.677C124.783 118.968 124.155 142.993 123.173 158.41H139.589H166.411H210.473C227.543 158.41 251.93 161.218 234.991 143.321C224.31 132.05 209.203 125.017 192.474 125.017Z" fill="white"/>
<path fill-rule="evenodd" clip-rule="evenodd" d="M593.347 284.4C596.083 284.4 598.701 284.899 601.136 285.804C602.236 284.597 603.806 283.836 605.574 283.836C606.398 283.836 607.171 284.007 607.891 284.296C608.283 279.126 612.59 275.058 617.852 275.058C620.13 275.058 622.238 275.832 623.913 277.118C624.987 275.636 626.741 274.665 628.704 274.665C629.032 274.665 629.359 274.691 629.673 274.743C629.005 273.182 628.639 271.463 628.639 269.665C628.639 262.528 634.412 256.741 641.533 256.741C642.855 256.741 644.138 256.938 645.342 257.318C646.272 255.324 648.301 253.933 650.644 253.933H650.814C650.788 253.474 650.775 253.002 650.775 252.529C650.775 239.71 661.142 229.318 673.932 229.318C686.721 229.318 697.088 239.71 697.088 252.529C697.088 252.713 697.088 252.884 697.075 253.067C698.201 252.779 699.366 252.634 700.57 252.634C702.966 252.634 705.218 253.225 707.207 254.274C710.585 249.656 716.03 246.664 722.183 246.664C732.432 246.664 740.732 254.996 740.732 265.257C740.732 267.277 740.404 269.219 739.815 271.043C739.999 271.03 740.195 271.03 740.378 271.03C745.431 271.03 749.515 275.137 749.515 280.189C749.515 280.779 749.463 281.369 749.345 281.934C749.411 281.934 749.476 281.934 749.542 281.934C752.395 281.934 754.712 284.204 754.804 287.038C755.589 286.88 756.414 286.802 757.252 286.802C760.551 286.802 763.627 287.956 765.852 290.056C771.782 295.685 765.302 297.141 759.058 297.141H750.916H744.528H613.519H603.296H586.501C579.995 297.141 570.688 298.217 577.154 291.394C581.212 287.077 586.972 284.4 593.347 284.4Z" fill="white"/>
<path fill-rule="evenodd" clip-rule="evenodd" d="M31.1944 102.961H36.7185C37.7264 102.961 38.5642 103.788 38.5642 104.812V110.349C38.5642 111.359 37.7395 112.199 36.7185 112.199H31.1944C30.1864 112.199 29.3617 111.372 29.3617 110.349V104.812C29.3486 103.788 30.1733 102.961 31.1944 102.961Z" fill="#DCD7EB"/>
<path fill-rule="evenodd" clip-rule="evenodd" d="M50.0707 102.961H55.5948C56.6028 102.961 57.4405 103.788 57.4405 104.812V110.349C57.4405 111.359 56.6159 112.199 55.5948 112.199H50.0707C49.0627 112.199 48.2249 111.372 48.2249 110.349V104.812C48.2249 103.788 49.0496 102.961 50.0707 102.961Z" fill="#DCD7EB"/>
<path fill-rule="evenodd" clip-rule="evenodd" d="M68.9339 102.961H74.458C75.466 102.961 76.3038 103.788 76.3038 104.812V110.349C76.3038 111.359 75.4791 112.199 74.458 112.199H68.9339C67.9259 112.199 67.0882 111.372 67.0882 110.349V104.812C67.1012 103.788 67.9259 102.961 68.9339 102.961Z" fill="#DCD7EB"/>
<path fill-rule="evenodd" clip-rule="evenodd" d="M87.8102 102.961H93.3343C94.3423 102.961 95.167 103.788 95.167 104.812V110.349C95.167 111.359 94.3423 112.199 93.3343 112.199H87.8102C86.8022 112.199 85.9645 111.372 85.9645 110.349V104.812C85.9645 103.788 86.8022 102.961 87.8102 102.961Z" fill="#DCD7EB"/>
<path fill-rule="evenodd" clip-rule="evenodd" d="M251.1 459.292H485.928L515.577 513.417C336.684 480.141 403.903 477.097 226.333 515.083C235.6 492.764 243.965 474.25 251.1 459.292Z" fill="#313254"/>
<path fill-rule="evenodd" clip-rule="evenodd" d="M532.268 338.407C551.393 326.611 561.721 318.896 562.611 318.332C564.693 317.02 564.182 314.317 562.114 314.277C560.045 314.238 554.286 316.35 553.539 316.757C552.793 317.177 552.82 316.429 552.82 316.429C555.804 306.706 547.295 303.452 545.005 303.085C542.714 302.704 540.881 303.584 540.776 304.83C540.672 306.077 542.386 306.759 542.386 306.759C547.727 307.861 548.578 312.755 546.183 315.721C543.787 318.673 539.075 319.854 535.92 316.416C532.752 312.978 535.71 309.108 536.875 308.005C538.04 306.903 539.219 305.722 538.198 304.436C537.163 303.151 535.867 304.108 535.867 304.108C524.204 310.866 528.825 320.379 528.825 320.379C528.825 320.379 529.663 323.646 526.874 325.181C526.599 325.338 525.879 325.653 524.832 326.099L532.268 338.407Z" fill="#F4AD85"/>
<path fill-rule="evenodd" clip-rule="evenodd" d="M387.03 216.157C374.424 210.699 362.237 210.699 349.644 216.157L351.83 221.996H384.857L387.03 216.157Z" fill="#ACB5DB"/>
<path fill-rule="evenodd" clip-rule="evenodd" d="M384.124 184.011L383.666 194.652C383.666 194.652 383.666 216.446 383.666 219.766C383.666 221.366 385.158 223.676 387.776 225.683C385.472 228.176 381.205 232.624 376.832 236.049H360.469C356.11 232.611 351.83 228.176 349.526 225.683C352.157 223.676 353.636 221.366 353.636 219.766C353.636 216.459 353.636 194.652 353.636 194.652L353.178 184.011C353.178 184.011 360.784 185.375 368.638 187.304C376.518 185.388 384.124 184.011 384.124 184.011Z" fill="#E8685B"/>
<path fill-rule="evenodd" clip-rule="evenodd" d="M373.429 237.991L370.431 238.424H368.677H366.923L363.925 237.991L346.24 221.209L316.25 235.892L316.263 235.905C316.263 235.905 311.014 261.661 311.014 294.176L311.852 308.333C312.101 312.178 312.349 315.878 312.598 319.447L312.755 326.677C312.755 326.677 310.085 383.36 310.713 385.8C311.341 388.241 316.433 394.041 316.433 394.041C316.237 395.576 316.015 397.216 315.779 398.935C324.955 402.792 341.999 407.739 368.69 407.516C395.368 407.739 412.425 402.792 421.602 398.935C421.366 397.216 421.143 395.576 420.947 394.041C420.947 394.041 426.039 388.241 426.668 385.8C427.296 383.36 424.639 326.677 424.639 326.677L424.782 319.447C425.031 315.878 425.28 312.178 425.529 308.333L426.366 294.176C426.366 261.675 421.117 235.905 421.117 235.905L421.13 235.892L391.127 221.209L373.429 237.991Z" fill="#333258"/>
<path fill-rule="evenodd" clip-rule="evenodd" d="M311.001 293.1C311.001 293.454 311.001 293.821 311.001 294.176L311.839 308.333C312.088 312.178 312.336 315.878 312.585 319.447L312.742 326.677L312.703 327.516C313.213 316.849 314.994 285.319 314.143 286.775C313.946 287.13 312.781 289.491 311.001 293.1ZM310.713 376.563C314.522 382.087 324.536 389.855 350.887 391.43C392.646 393.936 407.896 378.4 410.147 364.111C412.399 349.822 430.084 259.09 388.352 230.394C386.912 229.41 385.616 228.452 384.451 227.533L391.114 221.222L421.117 235.905L421.104 235.918C421.104 235.918 421.314 236.954 421.654 238.857C421.222 246.808 421.562 259.628 425.777 275.216C426.131 281.146 426.353 287.523 426.353 294.189L425.516 308.346C425.267 312.191 425.018 315.891 424.769 319.46L424.625 326.69C424.625 326.69 427.296 383.373 426.654 385.814C426.026 388.254 420.934 394.054 420.934 394.054C421.13 395.589 421.353 397.229 421.588 398.948C412.412 402.805 395.368 407.752 368.677 407.529C341.999 407.752 324.942 402.805 315.766 398.948C316.002 397.229 316.224 395.589 316.42 394.054C316.42 394.054 311.328 388.254 310.7 385.814C310.543 385.236 310.582 381.68 310.713 376.563Z" fill="#262649"/>
<path fill-rule="evenodd" clip-rule="evenodd" d="M372.735 235.209L370.026 235.603H366.661L363.952 235.209L353.217 225.027L351.607 225.526L348.165 230.066C348.165 230.066 355.993 248.265 356.451 248.882C356.909 249.498 357.734 249.8 358.899 248.37C360.077 246.94 363.781 242.255 363.781 242.255C363.781 242.255 364.855 241.127 365.352 242.4C365.85 243.673 371.387 240.169 371.387 240.169L371.78 241.403C371.78 241.403 372.617 240.379 373.455 241.704C374.28 243.03 378.377 248.764 378.665 249.013C378.94 249.275 380.197 250.115 381.061 248.317C381.859 246.677 391.166 225.723 392.803 222.062L388.705 220.054L372.735 235.209Z" fill="#1F1F40"/>
<path fill-rule="evenodd" clip-rule="evenodd" d="M372.735 235.209L370.025 235.603H366.661L363.952 235.209L362.878 234.199L360.627 238.109C360.627 238.109 365.666 239.749 365.666 244.184C365.666 248.619 365.666 403.855 365.666 403.855L368.337 410.521L371.02 403.855C371.02 403.855 371.02 248.632 371.02 244.184C371.02 239.749 376.06 238.109 376.06 238.109L373.809 234.199L372.735 235.209Z" fill="#1F1F40"/>
<path fill-rule="evenodd" clip-rule="evenodd" d="M365.038 233.897L366.661 233.622C366.661 233.622 366.989 233.963 367.028 234.553C367.08 235.144 367.106 236.863 367.106 236.863C366.517 237.072 363.323 237.729 363.428 237.269C363.454 237.177 365.038 233.897 365.038 233.897Z" fill="#1F1F40"/>
<path fill-rule="evenodd" clip-rule="evenodd" d="M371.649 233.897L370.025 233.622C370.025 233.622 369.711 233.963 369.659 234.553C369.607 235.144 369.58 236.863 369.58 236.863C370.169 237.335 373.364 237.729 373.259 237.269C373.22 237.177 371.649 233.897 371.649 233.897Z" fill="#1F1F40"/>
<path fill-rule="evenodd" clip-rule="evenodd" d="M387.03 216.157C387.213 216.315 389.216 219.858 390.263 221.55C390.263 221.55 391.206 222.954 390.512 225.29C389.818 227.638 380.694 246.913 380.694 246.913C380.694 246.913 380.04 247.937 379.006 246.94C377.958 245.942 370.012 233.635 370.012 233.635L385.079 217.706C385.799 216.8 386.847 216 387.03 216.157Z" fill="white"/>
<path fill-rule="evenodd" clip-rule="evenodd" d="M349.644 216.157C349.513 216.223 347.458 219.858 346.41 221.55C346.41 221.55 345.468 222.954 346.162 225.29C346.856 227.638 355.98 246.913 355.98 246.913C355.98 246.913 356.634 247.937 357.668 246.94C358.715 245.942 366.661 233.635 366.661 233.635L351.594 217.706C350.586 216.512 349.775 216.092 349.644 216.157Z" fill="white"/>
<path fill-rule="evenodd" clip-rule="evenodd" d="M323.005 290.804H352.733C353.126 290.804 353.44 291.118 353.44 291.512V293.415C353.44 293.808 353.126 294.123 352.733 294.123H323.005C322.612 294.123 322.298 293.808 322.298 293.415V291.512C322.298 291.118 322.612 290.804 323.005 290.804Z" fill="white"/>
<path fill-rule="evenodd" clip-rule="evenodd" d="M489.226 380.382C489.226 380.382 393.339 399.84 366.975 399.84C340.625 399.84 244.725 380.382 244.725 380.382L249.476 399.25L366.975 433.443L484.475 399.25L489.226 380.382Z" fill="#525475"/>
<path fill-rule="evenodd" clip-rule="evenodd" d="M278.38 457.652L283.551 456.983C283.551 456.983 290.371 455.106 292.517 454.424C294.664 453.742 300.607 455.015 302.558 464.974C304.508 474.946 299.338 476.992 293.591 478.462C287.844 479.932 273.117 484.327 273.117 484.327C273.117 484.327 265.813 468.595 278.38 457.652Z" fill="#F09373"/>
<path fill-rule="evenodd" clip-rule="evenodd" d="M273.118 480.758C273.118 480.758 274.335 480.509 277.071 480.509C279.794 480.509 279.951 482.267 280.239 483.737C280.527 485.206 281.744 489.011 277.215 490.822C272.686 492.633 245.693 502.251 245.693 502.251L240.719 499.666C240.719 499.653 255.524 485.98 273.118 480.758Z" fill="#3B3B61"/>
<path fill-rule="evenodd" clip-rule="evenodd" d="M267.345 442.851C267.345 442.851 274.139 445.685 282.425 452.522C282.425 452.522 284.519 454.568 283.354 457.547C282.189 460.525 270.63 465.512 274.728 482.11C274.728 482.11 275.709 484.747 272.882 485.731C270.054 486.702 250.654 494.43 248.22 496.084C245.785 497.75 245.876 499.692 245.68 502.238C245.484 504.783 241.583 504.193 234.566 511.619C227.55 519.046 220.416 522.956 214.852 519.098C214.852 519.098 212.339 518.167 211.567 515.136C210.781 512.105 213.124 502.343 213.124 502.343L243.245 458.479L267.345 442.851Z" fill="#1F1F40"/>
<path fill-rule="evenodd" clip-rule="evenodd" d="M267.345 442.851C267.345 442.851 254.084 458.977 250.576 463.556C247.068 468.149 241.517 469.421 236.15 475.182C230.796 480.942 218.701 496.674 214.905 504.875C211.108 513.075 213.242 517.773 214.852 519.085C214.852 519.085 211.907 519.912 211.292 519.702C210.676 519.479 208.687 514.768 208.386 510.372C208.098 505.977 214.918 491.124 221.738 481.939C228.558 472.754 236.451 465.433 243.468 456.34C250.484 447.26 255.262 439.978 257.409 438.023C259.556 436.068 260.577 436.172 261.598 436.264C262.619 436.356 266.808 440.463 267.305 441.145C267.816 441.854 267.345 442.851 267.345 442.851Z" fill="white"/>
<path fill-rule="evenodd" clip-rule="evenodd" d="M212.928 519.57C212.234 519.715 211.567 519.807 211.318 519.715C210.703 519.492 208.713 514.781 208.412 510.386C208.124 505.99 214.944 491.137 221.764 481.952C228.584 472.767 236.478 465.446 243.494 456.353C250.51 447.273 255.288 439.991 257.435 438.036C259.582 436.081 260.603 436.186 261.624 436.278C261.925 436.304 262.475 436.671 263.13 437.183C263.13 437.183 260.498 436.396 255.576 442.851C250.654 449.294 241.674 462.113 229.801 474.893C217.928 487.686 210.703 503.13 209.826 510.163C209.551 512.288 210.912 515.765 212.928 519.57Z" fill="#333258"/>
<path fill-rule="evenodd" clip-rule="evenodd" d="M286.954 453.65C286.954 453.65 472.523 385.853 481.87 382.337C491.229 378.82 504.477 378.033 508.181 389.566C511.886 401.087 514.412 427.67 479.723 437.432C445.02 447.207 296.693 480.614 291.627 481.388C286.561 482.162 284.912 460.394 285.344 456.484C285.357 456.484 285.737 454.372 286.954 453.65Z" fill="#626585"/>
<path fill-rule="evenodd" clip-rule="evenodd" d="M286.954 453.65C286.954 453.65 333.922 436.487 381.781 418.984C385.551 422.369 392.868 426.765 407.032 430.78C435.281 438.797 470.625 428.313 488.048 424.259C505.053 420.309 510.263 404.498 510.184 400.457C510.852 413.263 505.799 430.084 479.736 437.419C445.033 447.194 296.706 480.601 291.64 481.375C286.574 482.149 284.925 460.381 285.357 456.471C285.357 456.484 285.737 454.372 286.954 453.65Z" fill="#525475"/>
<path fill-rule="evenodd" clip-rule="evenodd" d="M455.584 457.652L450.413 456.983C450.413 456.983 443.593 455.106 441.447 454.424C439.3 453.742 433.357 455.015 431.406 464.974C429.456 474.946 434.626 476.992 440.373 478.462C446.12 479.932 460.833 484.327 460.833 484.327C460.833 484.327 468.164 468.595 455.584 457.652Z" fill="#F09373"/>
<path fill-rule="evenodd" clip-rule="evenodd" d="M460.846 480.758C460.846 480.758 459.629 480.509 456.893 480.509C454.17 480.509 454.013 482.267 453.725 483.737C453.437 485.206 452.22 489.011 456.749 490.822C461.278 492.633 488.271 502.251 488.271 502.251L493.245 499.666C493.258 499.653 478.44 485.98 460.846 480.758Z" fill="#3B3B61"/>
<path fill-rule="evenodd" clip-rule="evenodd" d="M466.619 442.851C466.619 442.851 459.825 445.685 451.539 452.522C451.539 452.522 449.445 454.568 450.61 457.547C451.775 460.525 463.334 465.512 459.236 482.11C459.236 482.11 458.268 484.747 461.095 485.731C463.923 486.702 483.31 494.43 485.757 496.084C488.192 497.75 488.101 499.692 488.297 502.238C488.493 504.783 492.394 504.193 499.411 511.619C506.427 519.046 513.561 522.956 519.125 519.098C519.125 519.098 521.638 518.167 522.41 515.136C523.196 512.105 520.853 502.343 520.853 502.343L490.745 458.479L466.619 442.851Z" fill="#1F1F40"/>
<path fill-rule="evenodd" clip-rule="evenodd" d="M466.619 442.851C466.619 442.851 479.88 458.977 483.388 463.556C486.896 468.149 492.447 469.421 497.814 475.182C503.168 480.942 515.263 496.674 519.059 504.875C522.856 513.075 520.722 517.773 519.112 519.085C519.112 519.085 522.057 519.912 522.672 519.702C523.288 519.479 525.277 514.768 525.578 510.372C525.866 505.977 519.046 491.124 512.226 481.939C505.406 472.754 497.513 465.433 490.496 456.34C483.48 447.26 478.702 439.978 476.555 438.023C474.408 436.068 473.387 436.172 472.366 436.264C471.345 436.356 467.156 440.463 466.659 441.145C466.161 441.854 466.619 442.851 466.619 442.851Z" fill="white"/>
<path fill-rule="evenodd" clip-rule="evenodd" d="M521.049 519.57C521.743 519.715 522.41 519.807 522.659 519.715C523.274 519.492 525.264 514.781 525.565 510.386C525.853 505.99 519.033 491.137 512.213 481.952C505.393 472.767 497.499 465.446 490.483 456.353C483.467 447.273 478.689 439.991 476.542 438.036C474.395 436.081 473.374 436.186 472.353 436.278C472.065 436.304 471.502 436.671 470.847 437.183C470.847 437.183 473.479 436.396 478.401 442.851C483.323 449.294 492.303 462.113 504.176 474.893C516.049 487.686 523.274 503.13 524.152 510.163C524.413 512.288 523.065 515.765 521.049 519.57Z" fill="#333258"/>
<path fill-rule="evenodd" clip-rule="evenodd" d="M447.01 453.65C447.01 453.65 261.441 385.853 252.094 382.337C242.735 378.82 229.487 378.033 225.783 389.566C222.078 401.087 219.539 427.67 254.241 437.432C288.931 447.207 437.271 480.614 442.337 481.388C447.403 482.162 449.052 460.394 448.62 456.484C448.62 456.484 448.24 454.372 447.01 453.65Z" fill="#717697"/>
<path fill-rule="evenodd" clip-rule="evenodd" d="M224.932 392.624C221.908 405.259 222.34 428.444 254.241 437.432C288.931 447.207 437.271 480.614 442.337 481.388C445.465 481.874 447.285 473.791 448.123 466.6C442.926 469.618 434.221 471.573 419.782 468.634C387.776 462.113 285.75 437.301 253.992 423.012C222.576 408.881 224.879 392.952 224.932 392.624Z" fill="#626585"/>
<path fill-rule="evenodd" clip-rule="evenodd" d="M330.859 163.332C330.597 163.371 330.349 163.41 330.087 163.463H330.074C325.4 164.447 321.853 168.554 321.761 173.54C321.657 179.339 326.251 184.129 332.037 184.234C337.823 184.339 342.601 179.733 342.719 173.934C342.784 170.561 341.253 167.53 338.831 165.562C339.093 168.659 338.609 172.503 334.655 172.884L334.773 166.835C334.812 164.394 332.535 163.266 330.859 163.332Z" fill="#E8685B"/>
<path fill-rule="evenodd" clip-rule="evenodd" d="M406.482 163.332C406.744 163.371 406.993 163.41 407.254 163.463H407.268C411.941 164.447 415.488 168.554 415.593 173.54C415.698 179.339 411.103 184.129 405.317 184.234C399.531 184.339 394.753 179.733 394.635 173.934C394.57 170.561 396.102 167.53 398.523 165.562C398.261 168.659 398.746 172.503 402.699 172.884L402.581 166.835C402.529 164.394 404.807 163.266 406.482 163.332Z" fill="#E8685B"/>
<path fill-rule="evenodd" clip-rule="evenodd" d="M368.677 110.86C348.95 110.86 332.797 127.039 332.797 146.825V179.536C332.797 199.31 348.937 215.501 368.677 215.501C388.404 215.501 404.545 199.323 404.545 179.536V146.825C404.545 127.052 388.404 110.86 368.677 110.86Z" fill="#F4AD85"/>
<path fill-rule="evenodd" clip-rule="evenodd" d="M370.745 215.436C389.517 214.347 404.545 198.614 404.545 179.536V146.825C404.545 132.038 395.512 119.258 382.71 113.747C369.345 119.455 337.771 142.417 337.771 142.417L340.899 146.93C340.899 146.93 342.523 141.603 352.406 141.603C362.276 141.603 372.539 141.603 378.102 141.603C383.666 141.603 389.412 143.611 389.412 149.935C389.412 156.259 392.161 162.846 398.039 162.846C398.039 162.846 398.039 175.757 398.039 184.273C398.026 192.789 389.844 213.14 370.745 215.436Z" fill="#F09373"/>
<path fill-rule="evenodd" clip-rule="evenodd" d="M389.007 181.308C386.402 181.255 384.255 183.341 384.202 185.953C384.15 188.564 386.231 190.715 388.823 190.768C391.428 190.82 393.575 188.734 393.627 186.123C393.68 183.525 391.612 181.36 389.007 181.308Z" fill="#E8685B"/>
<path fill-rule="evenodd" clip-rule="evenodd" d="M348.426 180.534C345.821 180.481 343.675 182.567 343.622 185.178C343.57 187.79 345.638 189.941 348.256 189.994C350.861 190.046 353.008 187.973 353.06 185.349C353.113 182.751 351.031 180.586 348.426 180.534Z" fill="#E8685B"/>
<path fill-rule="evenodd" clip-rule="evenodd" d="M346.45 163.778C345.821 164.093 345.049 163.83 344.748 163.214C344.434 162.584 344.696 161.81 345.311 161.508C348.688 159.763 353.204 159.566 356.516 161.547C357.118 161.902 357.315 162.702 356.948 163.292C356.595 163.896 355.796 164.093 355.194 163.725C352.524 162.125 349.159 162.479 346.45 163.778Z" fill="#1F1F40"/>
<path fill-rule="evenodd" clip-rule="evenodd" d="M392.253 163.778C389.53 162.479 386.179 162.125 383.495 163.725C382.893 164.093 382.108 163.883 381.754 163.292C381.401 162.689 381.597 161.902 382.186 161.547C385.498 159.553 390.014 159.763 393.392 161.495C394.02 161.81 394.269 162.584 393.955 163.214C393.641 163.843 392.881 164.093 392.253 163.778Z" fill="#1F1F40"/>
<path fill-rule="evenodd" clip-rule="evenodd" d="M354.029 137.168C350.167 137.168 342.693 139.005 342.693 146.734C342.693 154.462 341.227 160.603 336.305 160.603C336.305 160.603 336.305 163.279 336.305 166.665C336.305 170.05 335.977 173.488 332.783 173.488C332.783 166.192 330.571 163.319 330.571 163.319C330.571 163.319 330.571 153.557 330.571 145.028C330.571 136.499 332.967 125.031 344.133 117.172C358.585 106.99 378.731 106.99 393.195 117.172C404.375 125.031 406.757 136.499 406.757 145.028C406.757 153.557 406.757 163.319 406.757 163.319C406.757 163.319 404.545 166.192 404.545 173.488C401.351 173.488 401.024 170.063 401.024 166.665C401.024 163.266 401.024 160.603 401.024 160.603C396.102 160.603 394.635 154.475 394.635 146.734C394.635 139.005 387.161 137.168 383.299 137.168C373.547 137.168 363.795 137.168 354.029 137.168Z" fill="#555272"/>
<path fill-rule="evenodd" clip-rule="evenodd" d="M397.162 120.439C401.599 124.729 406.836 129.965 407.412 131.461C408.158 133.363 407.15 137.706 406.521 140.33C404.362 149.003 401.037 160.603 401.037 160.603C396.115 160.603 394.648 154.475 394.648 146.734C394.648 141 390.538 138.507 386.847 137.601L386.205 121.987L397.162 120.439Z" fill="#333258"/>
<path fill-rule="evenodd" clip-rule="evenodd" d="M340.179 120.439C335.742 124.729 330.506 129.965 329.93 131.461C329.184 133.363 330.192 137.706 330.82 140.33C332.98 149.003 336.305 160.603 336.305 160.603C341.227 160.603 342.693 154.475 342.693 146.734C342.693 141 346.803 138.507 350.495 137.601L351.136 121.987L340.179 120.439Z" fill="#333258"/>
<path fill-rule="evenodd" clip-rule="evenodd" d="M342.654 139.53C342.654 139.53 334.079 134.373 333.674 127.892C332.914 115.991 349.788 97.0831 365.326 104.615C400.186 88.9611 421.536 112.737 392.004 139.53C391.873 139.648 391.729 139.766 391.598 139.884C389.085 137.798 385.577 137.168 383.312 137.168C373.547 137.168 363.795 137.168 354.029 137.168C351.49 137.168 347.379 137.969 344.866 140.711C343.465 140.002 342.654 139.53 342.654 139.53Z" fill="#262649"/>
<path fill-rule="evenodd" clip-rule="evenodd" d="M335.637 130.791C335.794 131.014 335.755 131.329 335.545 131.487C335.336 131.657 335.048 131.618 334.891 131.395C334.878 131.369 328.804 123.22 336.056 112.527C336.213 112.304 336.501 112.251 336.711 112.422C336.92 112.579 336.972 112.894 336.815 113.117C329.982 123.207 335.624 130.778 335.637 130.791Z" fill="#262649"/>
<path fill-rule="evenodd" clip-rule="evenodd" d="M343.138 111.582C342.981 111.805 342.693 111.844 342.483 111.687C342.274 111.516 342.235 111.215 342.392 110.992C342.418 110.952 351.241 98.1197 360.797 97.9754C370.732 97.8179 368.324 108.722 368.311 108.748C368.258 109.01 367.996 109.181 367.748 109.128C367.499 109.063 367.342 108.8 367.394 108.538C367.394 108.512 369.541 98.8414 360.81 98.9857C351.712 99.1169 343.164 111.556 343.138 111.582Z" fill="#262649"/>
<path fill-rule="evenodd" clip-rule="evenodd" d="M380.55 101.439C380.314 101.544 380.04 101.426 379.935 101.177C379.83 100.928 379.948 100.626 380.184 100.521C380.21 100.508 388.627 96.6239 398.052 99.4712C400.578 100.232 402.751 101.557 404.427 103.289C405.932 104.851 407.032 106.74 407.595 108.84C408.158 110.939 408.171 113.261 407.529 115.663C406.836 118.287 405.343 121.029 402.882 123.719C402.699 123.916 402.411 123.916 402.215 123.732C402.031 123.535 402.018 123.22 402.202 123.024C404.532 120.465 405.959 117.867 406.613 115.387C407.202 113.17 407.189 111.044 406.665 109.115C406.155 107.186 405.147 105.441 403.746 103.998C402.188 102.384 400.146 101.138 397.777 100.429C388.692 97.6736 380.576 101.426 380.55 101.439Z" fill="#262649"/>
<path fill-rule="evenodd" clip-rule="evenodd" d="M337.339 116.043C337.758 115.374 338.203 114.718 338.687 114.075C353.087 125.687 386.676 118.182 378.286 100.429C383.247 99.4712 387.724 99.4187 391.559 100.127C399.256 116.161 358.663 139.911 337.339 116.043Z" fill="#333258"/>
<path fill-rule="evenodd" clip-rule="evenodd" d="M335.375 113.616C335.585 113.261 335.82 112.907 336.069 112.54C336.226 112.317 336.514 112.264 336.724 112.435C336.933 112.592 336.985 112.907 336.828 113.13C336.527 113.576 336.252 114.009 336.004 114.442C335.781 114.167 335.572 113.891 335.375 113.616Z" fill="#333258"/>
<path fill-rule="evenodd" clip-rule="evenodd" d="M380.55 101.439C380.314 101.544 380.04 101.426 379.935 101.177C379.83 100.928 379.948 100.626 380.184 100.521C380.197 100.508 384.582 98.4871 390.551 98.4215C390.787 98.7495 390.996 99.0776 391.193 99.4187C385.106 99.3269 380.563 101.426 380.55 101.439Z" fill="#333258"/>
<path fill-rule="evenodd" clip-rule="evenodd" d="M342.654 139.53C342.654 139.53 334.079 134.373 333.674 127.892C333.503 125.189 334.236 122.131 335.663 119.114C336.737 123.535 340.075 128.01 348.269 130.634C365.719 136.223 407.634 121.436 398.602 102.607C409.14 108.761 409.558 123.614 392.017 139.53C391.886 139.648 391.742 139.766 391.612 139.884C389.098 137.798 385.59 137.168 383.325 137.168C373.56 137.168 363.808 137.168 354.042 137.168C351.503 137.168 347.392 137.969 344.879 140.711C343.465 140.002 342.654 139.53 342.654 139.53Z" fill="#1F1F40"/>
<path fill-rule="evenodd" clip-rule="evenodd" d="M335.637 130.791C335.794 131.014 335.755 131.329 335.545 131.487C335.336 131.657 335.048 131.618 334.891 131.395C334.878 131.369 329.236 123.798 335.323 113.681C335.257 114.377 335.218 115.085 335.244 115.82C330.964 124.533 335.624 130.778 335.637 130.791Z" fill="#1F1F40"/>
<path fill-rule="evenodd" clip-rule="evenodd" d="M396.246 98.9988C396.835 99.13 397.437 99.2874 398.039 99.4711C400.565 100.232 402.738 101.557 404.414 103.289C405.919 104.851 407.019 106.74 407.582 108.84C408.145 110.939 408.158 113.261 407.516 115.663C406.823 118.287 405.33 121.029 402.869 123.719C402.686 123.916 402.398 123.916 402.202 123.732C402.018 123.535 402.005 123.22 402.189 123.024C404.519 120.465 405.945 117.867 406.6 115.387C407.189 113.17 407.176 111.044 406.652 109.115C406.142 107.186 405.134 105.441 403.733 103.998C402.175 102.384 400.133 101.138 397.764 100.429C397.568 100.377 397.384 100.324 397.188 100.272C396.926 99.8385 396.599 99.4187 396.246 98.9988Z" fill="#1F1F40"/>
<path fill-rule="evenodd" clip-rule="evenodd" d="M383.469 170.456C383.456 169.827 382.946 169.328 382.317 169.341C381.689 169.354 381.192 169.866 381.205 170.496C381.218 172.005 381.846 173.369 382.854 174.34C383.862 175.324 385.237 175.915 386.729 175.902C388.234 175.889 389.583 175.259 390.564 174.249C391.546 173.238 392.135 171.86 392.122 170.365C392.109 169.735 391.598 169.236 390.97 169.249C390.342 169.262 389.844 169.774 389.857 170.404C389.871 171.283 389.517 172.097 388.954 172.674C388.378 173.264 387.58 173.632 386.703 173.645C385.826 173.658 385.014 173.304 384.438 172.74C383.849 172.136 383.482 171.349 383.469 170.456Z" fill="#1F1F40"/>
<path fill-rule="evenodd" clip-rule="evenodd" d="M347.471 170.837C347.458 170.207 346.947 169.709 346.319 169.722C345.691 169.735 345.193 170.247 345.206 170.876C345.219 172.385 345.848 173.737 346.856 174.721C347.864 175.705 349.225 176.295 350.73 176.282C352.236 176.269 353.584 175.639 354.566 174.629C355.548 173.619 356.137 172.241 356.124 170.745C356.11 170.115 355.6 169.617 354.972 169.63C354.343 169.643 353.846 170.155 353.859 170.771C353.872 171.651 353.519 172.464 352.956 173.055C352.38 173.645 351.581 174.012 350.704 174.025C349.827 174.039 349.015 173.684 348.439 173.12C347.85 172.53 347.484 171.729 347.471 170.837Z" fill="#1F1F40"/>
<path fill-rule="evenodd" clip-rule="evenodd" d="M365.47 188.905C365.457 188.275 364.946 187.776 364.331 187.789C363.703 187.803 363.205 188.314 363.205 188.944C363.219 190.453 363.86 191.805 364.855 192.789C365.863 193.773 367.237 194.363 368.73 194.35C370.235 194.337 371.583 193.707 372.565 192.697C373.547 191.686 374.136 190.309 374.123 188.813C374.11 188.183 373.599 187.685 372.971 187.698C372.342 187.711 371.845 188.222 371.858 188.839C371.871 189.718 371.518 190.532 370.955 191.122C370.379 191.713 369.58 192.08 368.703 192.08C367.826 192.093 367.015 191.739 366.426 191.175C365.85 190.584 365.483 189.784 365.47 188.905Z" fill="#ED8068"/>
<path fill-rule="evenodd" clip-rule="evenodd" d="M416.719 291.302C416.719 291.302 455.427 366.775 467.091 369.675C478.767 372.574 509.438 354.231 534.964 338.486C535.318 335.35 529.571 323.501 526.495 323.344C516.978 327.359 477.602 344.653 474.866 344.626C472.589 344.613 454.995 298.283 444.785 270.492C439.823 256.977 432.584 240.917 420.842 235.787C420.842 235.8 402.411 240.497 416.719 291.302Z" fill="#333258"/>
<path fill-rule="evenodd" clip-rule="evenodd" d="M416.719 291.302C416.719 291.302 455.427 366.775 467.091 369.675C478.767 372.574 509.438 354.231 534.964 338.486C535.174 336.662 533.315 331.886 531.116 328.186C529.519 335.862 515.603 345.781 502.304 352.447C487.551 359.847 473.544 366.604 468.923 361.973C464.302 357.341 456.671 342.042 436.171 301.943C421.091 272.447 420.895 247.425 421.837 236.246C421.51 236.088 421.183 235.931 420.842 235.787C420.842 235.787 407.778 239.119 412.19 270.492C412.962 273.89 413.59 277.368 414.101 280.884C414.808 284.125 415.672 287.589 416.719 291.302Z" fill="#262649"/>
<path fill-rule="evenodd" clip-rule="evenodd" d="M204.406 338.407C185.281 326.611 173.447 318.266 172.557 317.702C170.476 316.39 170.986 313.687 173.055 313.647C175.123 313.608 182.388 316.337 183.134 316.757C183.88 317.177 183.854 316.429 183.854 316.429C180.87 306.706 189.378 303.452 191.669 303.085C193.96 302.704 195.793 303.584 195.897 304.83C196.002 306.077 194.287 306.759 194.287 306.759C188.946 307.861 188.096 312.755 190.491 315.721C192.887 318.673 197.599 319.854 200.754 316.416C203.922 312.978 200.963 309.108 199.798 308.005C198.633 306.903 197.455 305.722 198.476 304.436C199.51 303.151 200.806 304.108 200.806 304.108C212.47 310.866 207.849 320.379 207.849 320.379C207.849 320.379 207.011 323.646 209.799 325.181C210.074 325.338 210.794 325.653 211.841 326.099L204.406 338.407Z" fill="#F4AD85"/>
<path fill-rule="evenodd" clip-rule="evenodd" d="M319.955 291.302C319.955 291.302 281.247 366.775 269.583 369.675C257.92 372.574 227.236 354.231 201.71 338.486C201.356 335.35 207.103 323.501 210.179 323.344C219.696 327.359 259.072 344.653 261.807 344.626C264.085 344.613 281.679 298.283 291.889 270.492C296.85 256.977 304.089 240.917 315.831 235.787C315.844 235.8 334.276 240.497 319.955 291.302Z" fill="#333258"/>
<path fill-rule="evenodd" clip-rule="evenodd" d="M313.907 302.796C302.545 324.039 278.38 367.483 269.583 369.675C257.92 372.574 227.236 354.231 201.71 338.486C201.552 337.042 202.665 333.775 204.223 330.652C206.265 333.906 210.833 338.355 220.73 343.813C242.983 356.094 256.113 362.366 263.483 363.993C270.853 365.62 277.607 353.969 285.108 342.566C292.609 331.164 313.239 288.297 314.117 286.802C314.562 286.054 314.326 293.677 313.907 302.796Z" fill="#262649"/>
<path fill-rule="evenodd" clip-rule="evenodd" d="M546.523 317.413C553.762 307.795 563.279 298.361 563.645 302.652C564.025 306.943 554.691 315.537 550.332 319.67C545.999 323.829 546.523 317.413 546.523 317.413Z" fill="#F4AD85"/>
<path fill-rule="evenodd" clip-rule="evenodd" d="M548.055 318.043C558.37 309.396 571.12 301.537 570.452 306.3C569.771 311.076 557.44 318.069 551.654 321.481C545.868 324.892 548.055 318.043 548.055 318.043Z" fill="#F4AD85"/>
<path fill-rule="evenodd" clip-rule="evenodd" d="M552.361 308.202C552.178 307.861 551.982 307.546 551.772 307.244C549.547 304.082 545.751 302.704 544.271 302.429C541.719 301.956 539.624 302.849 539.48 304.213C539.336 305.578 541.234 306.365 541.234 306.365C547.191 307.73 548.015 313.083 545.24 316.232C544.468 317.111 543.499 317.833 542.439 318.332C542.714 318.292 543.002 318.227 543.329 318.161C546.078 317.649 555.293 312.926 552.361 308.202Z" fill="#F09373"/>
<path fill-rule="evenodd" clip-rule="evenodd" d="M552.61 319.801C552.191 321.638 551.458 323.659 549.887 325.758C557.27 321.533 562.742 318.358 564.496 317.387C568.842 314.986 570.701 314.028 571.015 312.65C570.675 312.27 570.164 312.02 569.523 311.994C567.677 311.915 559.129 315.209 555.28 316.783C554.286 317.19 553.618 317.479 553.435 317.571C553.225 317.676 553.081 317.702 552.963 317.689C552.885 318.371 552.78 319.08 552.61 319.801Z" fill="#F4AD85"/>
<path fill-rule="evenodd" clip-rule="evenodd" d="M189.365 317.61C182.126 307.992 172.61 298.558 172.243 302.849C171.863 307.139 181.197 315.734 185.556 319.867C189.902 324.013 189.365 317.61 189.365 317.61Z" fill="#F4AD85"/>
<path fill-rule="evenodd" clip-rule="evenodd" d="M187.847 318.24C177.532 309.593 164.782 301.734 165.449 306.496C166.13 311.273 178.461 318.266 184.247 321.678C190.033 325.076 187.847 318.24 187.847 318.24Z" fill="#F4AD85"/>
<path fill-rule="evenodd" clip-rule="evenodd" d="M183.54 308.386C183.723 308.045 183.92 307.73 184.129 307.428C186.355 304.266 190.151 302.888 191.63 302.613C194.183 302.14 196.277 303.033 196.421 304.397C196.565 305.749 194.68 306.549 194.68 306.549C188.711 307.914 187.899 313.267 190.674 316.416C191.447 317.295 192.402 318.017 193.476 318.515C193.201 318.476 192.913 318.41 192.586 318.345C189.823 317.833 180.608 313.123 183.54 308.386Z" fill="#F09373"/>
<path fill-rule="evenodd" clip-rule="evenodd" d="M183.291 319.998C183.71 321.835 184.443 323.856 186.014 325.955C178.631 321.743 173.159 318.555 171.405 317.584C167.059 315.183 165.2 314.225 164.886 312.847C165.227 312.467 165.737 312.217 166.379 312.191C168.224 312.112 176.772 315.406 180.621 316.98C181.616 317.387 182.283 317.676 182.467 317.768C182.676 317.873 182.82 317.899 182.938 317.886C183.016 318.555 183.121 319.263 183.291 319.998Z" fill="#F4AD85"/>
<path fill-rule="evenodd" clip-rule="evenodd" d="M632.759 428.979C635.791 428.979 638.666 430.171 640.806 432.308C642.945 434.444 644.14 437.315 644.14 440.343C644.14 443.371 642.945 446.241 640.806 448.378C638.666 450.514 635.791 451.707 632.759 451.707C629.726 451.707 626.851 450.514 624.712 448.378C622.572 446.241 621.377 443.371 621.377 440.343C621.377 437.315 622.572 434.444 624.712 432.308C626.851 430.171 629.739 428.979 632.759 428.979ZM637.668 435.441C636.369 434.13 634.61 433.409 632.759 433.409C630.908 433.409 629.162 434.13 627.849 435.441C626.549 436.738 625.814 438.495 625.814 440.343C625.814 442.191 626.536 443.934 627.849 445.245C629.162 446.556 630.908 447.277 632.759 447.277C634.61 447.277 636.355 446.556 637.668 445.245C638.981 443.934 639.703 442.191 639.703 440.343C639.703 438.495 638.981 436.738 637.668 435.441Z" fill="#F7B63A"/>
<path fill-rule="evenodd" clip-rule="evenodd" d="M614.643 462.587C624.462 462.587 632.496 454.565 632.496 444.76V443.764V427.51V426.187C632.496 425.321 631.787 424.614 630.921 424.614H598.378C597.512 424.614 596.803 425.321 596.803 426.187V427.51V443.764V444.76C596.79 454.578 604.824 462.587 614.643 462.587Z" fill="#FAC74C"/>
<path fill-rule="evenodd" clip-rule="evenodd" d="M626.379 442.545C626.379 444.446 626.077 446.281 625.512 448.011C625.197 448.981 624.803 449.925 624.331 450.816C622.388 454.486 619.211 457.409 615.352 459.008C613.251 459.886 610.941 460.371 608.526 460.371C607.528 460.371 606.556 460.293 605.598 460.136C608.25 461.708 611.348 462.6 614.63 462.6C618.634 462.6 622.349 461.263 625.342 459.008C627.285 457.54 628.925 455.692 630.146 453.569C630.645 452.703 631.065 451.799 631.406 450.868C632.102 448.968 632.483 446.923 632.483 444.786V443.79V433.488V430.656V427.537V426.213C632.483 425.348 631.774 424.64 630.908 424.64H626.379V425.321V432.098V435.519V441.562V442.545Z" fill="#F7B63A"/>
<path fill-rule="evenodd" clip-rule="evenodd" d="M599.179 462.587H630.12C631.433 462.587 632.496 461.512 632.496 460.214C632.496 458.903 631.433 457.842 630.12 457.842H599.179C597.866 457.842 596.803 458.916 596.803 460.214C596.79 461.525 597.866 462.587 599.179 462.587Z" fill="#FAC74C"/>
<path fill-rule="evenodd" clip-rule="evenodd" d="M602.513 428.009C604.167 428.009 605.52 429.359 605.52 431.01V441.759C605.52 443.41 604.167 444.76 602.513 444.76C600.859 444.76 599.507 443.41 599.507 441.759V431.01C599.507 429.359 600.859 428.009 602.513 428.009Z" fill="#FAD996"/>
<path fill-rule="evenodd" clip-rule="evenodd" d="M599.402 402.645H613.015C614.052 402.645 614.892 401.806 614.892 400.771C614.892 399.735 614.052 398.896 613.015 398.896H594.716C592.025 398.896 589.819 396.694 589.819 394.007C589.819 391.32 592.025 389.118 594.716 389.118H642.315C645.006 389.118 647.212 391.32 647.212 394.007C647.212 396.694 645.006 398.896 642.315 398.896H625.709C624.672 398.896 623.832 399.735 623.832 400.771C623.832 401.806 624.672 402.645 625.709 402.645H632.102C634.19 402.645 635.883 404.349 635.883 406.42C635.883 408.491 634.176 410.195 632.102 410.195H621.535C617.4 410.195 614.013 413.577 614.013 417.706V421.153C614.013 422.123 613.212 422.923 612.241 422.923C611.269 422.923 610.468 422.123 610.468 421.153V414.599C610.468 412.174 608.486 410.195 606.058 410.195H599.402C597.328 410.195 595.622 408.491 595.622 406.42C595.622 404.336 597.315 402.645 599.402 402.645Z" fill="white"/>
<path opacity="0.75" fill-rule="evenodd" clip-rule="evenodd" d="M87.7132 266.505C69.2693 247.761 55.5513 271.577 57.4679 295.486C59.2794 318.149 78.8522 395.93 75.2291 428.647H82.7248C101.05 386.689 111.329 290.505 87.7132 266.505Z" fill="#E49BEB"/>
<path opacity="0.75" fill-rule="evenodd" clip-rule="evenodd" d="M79.9681 428.647C97.8081 362.519 75.2291 271.106 75.1503 270.791C75.0191 270.227 74.4415 269.873 73.877 270.018C73.3125 270.149 72.9581 270.725 73.1025 271.289C73.1812 271.604 95.7865 363.122 77.8152 428.647H79.9681Z" fill="#CD80E8"/>
<path opacity="0.75" fill-rule="evenodd" clip-rule="evenodd" d="M42.214 307.82C22.7855 297.544 17.8759 319.971 25.4504 338.532C31.7252 353.907 59.4632 399.404 69.9519 428.634H79.8368C80.6769 388.249 65.1605 319.958 42.214 307.82Z" fill="#E2C3E6"/>
<path opacity="0.75" fill-rule="evenodd" clip-rule="evenodd" d="M76.2268 428.647C69.7944 374.014 33.4055 314.623 33.2743 314.413C33.0248 313.994 32.4735 313.863 32.0534 314.112C31.6333 314.361 31.5021 314.911 31.7515 315.331C31.8828 315.541 68.0353 374.552 74.4546 428.647H76.2268Z" fill="#DF9BEA"/>
<path fill-rule="evenodd" clip-rule="evenodd" d="M124.351 333.76C143.189 325.542 146.169 346.789 137.807 363.554C132.149 374.892 111.736 403.939 97.9918 428.647H82.3178C87.6738 391.264 104.884 342.254 124.351 333.76Z" fill="#EEE0FF"/>
<path fill-rule="evenodd" clip-rule="evenodd" d="M87.9232 428.647C101.3 383.373 132.097 340.694 132.215 340.524C132.477 340.157 133.002 340.065 133.37 340.327C133.737 340.589 133.829 341.101 133.567 341.481C133.449 341.651 102.967 383.884 89.6298 428.647H87.9232Z" fill="#F9EBFF"/>
<path fill-rule="evenodd" clip-rule="evenodd" d="M58.1767 413.691H113.364C115.018 413.691 116.37 415.041 116.37 416.693V430.299C116.37 431.95 115.018 433.3 113.364 433.3H58.1767C56.5227 433.3 55.1706 431.95 55.1706 430.299V416.693C55.1837 415.041 56.5358 413.691 58.1767 413.691Z" fill="#151F42"/>
<path fill-rule="evenodd" clip-rule="evenodd" d="M67.6546 424.767H103.899L113.377 433.287L105.632 463.029H85.7835H65.9218L58.1767 433.287L67.6546 424.767Z" fill="#151F42"/>
<path fill-rule="evenodd" clip-rule="evenodd" d="M113.377 433.287L111.775 439.408H59.7783L58.1767 433.287H113.377Z" fill="#01051A"/>
</g>
<defs>
<clipPath id="clip0">
<rect width="778" height="526" fill="white"/>
</clipPath>
</defs>
</svg>
